<svg version="1.1" id="Calque_1" xmlns="http://www.w3.org/2000/svg" xmlns:xlink="http://www.w3.org/1999/xlink" x="0px" y="0px"
	 viewBox="0 0 283.5 44.7" enable-background="new 0 0 283.5 44.7" xml:space="preserve">
<g>
	<path fill="#222222" d="M3.9,16.7c0-9,3.5-12.5,14-12.5c2.2,0,5,0.2,6.5,0.5c0.8,0.2,1.5,0.8,1.5,1.5v2.7c0,0.8-0.6,1.5-1.5,1.5
		h-0.9c-1.1,0-2-0.4-3.4-0.4c-6.5,0-7.8,1.3-7.8,6.7v0.4h8.9c0.8,0,1.5,0.6,1.5,1.5v2.9c0,0.9-0.6,1.5-1.5,1.5h-8.9v15.2
		c0,0.8-0.6,1.5-1.5,1.5H5.4c-0.8,0-1.5-0.7-1.5-1.5V16.7z"/>
	<path fill="#222222" d="M36.4,28.4c0,4.1,1.9,5.8,4.7,5.8c2.4,0,4.7-1.7,6.5-3.5V14.4c0-0.8,0.7-1.5,1.5-1.5h5.5
		c0.8,0,1.5,0.7,1.5,1.5v23.8c0,0.8-0.6,1.5-1.5,1.5h-5.5c-0.8,0-1.5-0.7-1.5-1.5v-1.6c-2.3,2-4.8,3.6-8.5,3.6
		c-6.5,0-11.1-3.4-11.1-11.7v-14c0-0.8,0.6-1.5,1.5-1.5h5.5c0.8,0,1.5,0.7,1.5,1.5V28.4z"/>
	<path fill="#222222" d="M81.7,24.2c0-4.1-1.9-5.8-4.7-5.8c-2.4,0-4.8,1.7-6.6,3.5v16.4c0,0.8-0.6,1.5-1.5,1.5h-5.5
		c-0.9,0-1.5-0.7-1.5-1.5V14.4c0-0.8,0.6-1.5,1.5-1.5H69c0.8,0,1.5,0.7,1.5,1.5V16c2.3-2,4.8-3.6,8.6-3.6c6.5,0,11.1,3.4,11.1,11.7
		v14c0,0.8-0.6,1.5-1.5,1.5h-5.5c-0.8,0-1.5-0.7-1.5-1.5V24.2z"/>
	<path fill="#222222" d="M104.5,23.5c2.9,0,4.8-1.2,5.8-3.3l2.4-5c0.6-1.4,2.1-2.3,3.5-2.3h4.6c1.3,0,1.5,1,0.8,2.3l-3.2,6.7
		c-1,2.2-3,3.9-5.2,4.4c2,0.6,3.7,2,5.2,4.4l4.2,6.7c0.8,1.3,0.4,2.3-0.8,2.3h-4.6c-1.6,0-2.9-1-3.7-2.3l-3.1-5
		c-1.3-2.2-3.6-3.2-5.8-3.2v9.1c0,0.8-0.6,1.5-1.5,1.5h-5.5c-0.8,0-1.5-0.7-1.5-1.5v-32c0-0.8,0.6-1.5,1.5-1.5h5.5
		c0.8,0,1.5,0.7,1.5,1.5V23.5z"/>
	<path fill="#222222" d="M148.2,12.9c1.4,0,2.4,0.8,2.8,2.1l4,13.2l4-13.2c0.4-1.4,1.8-2.1,3.3-2.1h4.5c1.2,0,1.4,0.9,1,2.1
		l-7.4,22.5c-0.4,1.3-1.8,2.1-3.1,2.1h-3.5c-1.2,0-2.7-0.8-3.1-2.1L146,23l-4.7,14.6c-0.4,1.3-1.9,2.1-3.1,2.1h-3.5
		c-1.3,0-2.6-0.8-3.1-2.1l-7.4-22.5c-0.4-1.2-0.1-2.1,1-2.1h4.5c1.5,0,2.8,0.8,3.3,2.1l4,13.2l4-13.2c0.4-1.3,1.4-2.1,2.8-2.1H148.2
		z"/>
	<path fill="#222222" d="M191.1,24.2c0-4.1-1.9-5.8-4.6-5.8c-2.4,0-4.8,1.7-6.6,3.5v16.4c0,0.8-0.6,1.5-1.5,1.5h-5.5
		c-0.8,0-1.5-0.7-1.5-1.5v-32c0-0.8,0.7-1.5,1.5-1.5h5.5c0.8,0,1.5,0.7,1.5,1.5V16c2.3-2,4.8-3.6,8.6-3.6c6.5,0,11.1,3.4,11.1,11.7
		v14c0,0.8-0.7,1.5-1.5,1.5h-5.5c-0.8,0-1.5-0.7-1.5-1.5V24.2z"/>
	<path fill="#222222" d="M213.9,19.6c-0.6,0.8-1.6,1.3-2.8,1.3h-3.6c-0.8,0-1.5-0.6-1.5-1.5c0-5.2,5.2-7,13.3-7
		c7.2,0,12.9,3,12.9,10.6v15.1c0,0.8-0.7,1.5-1.5,1.5h-4.7c-0.8,0-1.5-0.7-1.5-1.5v-0.8c-2.3,1.6-5,2.8-8.9,2.8
		c-6.5,0-11.5-2.9-11.5-8.6s5-8.5,11.5-8.5h8.1c0-3.9-1.6-5.1-5-5.1C216.6,18,214.7,18.6,213.9,19.6z M223.7,32.4v-3.8h-7.5
		c-2.4,0-3.7,1.3-3.7,3c0,1.7,1.3,3,4,3C219.4,34.6,221.9,33.5,223.7,32.4z"/>
	<path fill="#222222" d="M239.6,39.7c-0.8,0-1.5-0.7-1.5-1.5v-32c0-0.8,0.7-1.5,1.5-1.5h5.5c0.8,0,1.5,0.7,1.5,1.5v32
		c0,0.8-0.6,1.5-1.5,1.5H239.6z"/>
	<path fill="#222222" d="M259.6,28.9c0.3,4,2.1,5.7,6.2,5.7c2.1,0,4-0.6,4.8-1.6c0.7-0.8,1.6-1.3,2.8-1.3h3.6c0.8,0,1.5,0.7,1.5,1.5
		c0,5.2-5.3,7-13.3,7c-8.9,0-14.3-4.8-14.3-13.8c0-9,5.4-13.9,14.3-13.9c8.9,0,14.2,4.8,14.2,13.6v1.4c0,0.8-0.6,1.5-1.5,1.5H259.6z
		 M259.6,23.7h11.4c-0.2-3.7-2-5.7-5.7-5.7C261.7,18,259.8,20,259.6,23.7z"/>
</g>
</svg>
