<?xml version="1.0" encoding="UTF-8" standalone="no"?>
<!-- Created with Inkscape (http://www.inkscape.org/) -->

<svg
   xmlns:dc="http://purl.org/dc/elements/1.1/"
   xmlns:cc="http://creativecommons.org/ns#"
   xmlns:rdf="http://www.w3.org/1999/02/22-rdf-syntax-ns#"
   xmlns:svg="http://www.w3.org/2000/svg"
   xmlns="http://www.w3.org/2000/svg"
   xmlns:sodipodi="http://sodipodi.sourceforge.net/DTD/sodipodi-0.dtd"
   xmlns:inkscape="http://www.inkscape.org/namespaces/inkscape"
   width="271.66678mm"
   height="53.491325mm"
   viewBox="0 0 271.66678 53.491325"
   version="1.1"
   id="svg4600"
   inkscape:version="0.92.4 (5da689c313, 2019-01-14)"
   sodipodi:docname="with-text.svg">
  <defs
     id="defs4594">
	
	
	
	
	
	
	
	
	
</defs>
  <sodipodi:namedview
     id="base"
     pagecolor="#ffffff"
     bordercolor="#666666"
     borderopacity="1.0"
     inkscape:pageopacity="0.0"
     inkscape:pageshadow="2"
     inkscape:zoom="0.7"
     inkscape:cx="392.13629"
     inkscape:cy="-23.988564"
     inkscape:document-units="mm"
     inkscape:current-layer="layer1"
     showgrid="false"
     inkscape:window-width="1920"
     inkscape:window-height="1043"
     inkscape:window-x="0"
     inkscape:window-y="0"
     inkscape:window-maximized="1" />
  <metadata
     id="metadata4597">
    <rdf:RDF>
      <cc:Work
         rdf:about="">
        <dc:format>image/svg+xml</dc:format>
        <dc:type
           rdf:resource="http://purl.org/dc/dcmitype/StillImage" />
        <dc:title></dc:title>
      </cc:Work>
    </rdf:RDF>
  </metadata>
  <g
     inkscape:label="Layer 1"
     inkscape:groupmode="layer"
     id="layer1"
     transform="translate(34.652951,-109.48195)">
    <g
       id="g5240">
      <g
         id="g18"
         transform="matrix(0.31910664,0,0,0.31910664,-45.917415,93.471844)">
	<g
   id="g16">
		<g
   id="g12">
			<path
   class="st1"
   d="m 128,157.1 c 17.7,0 32.1,-14.4 32.1,-32.1 0,-0.9 -0.8,-1.7 -1.7,-1.7 h -12.1 c -0.9,0 -1.7,0.8 -1.7,1.7 0,9.1 -7.4,16.6 -16.6,16.6 -9.1,0 -16.6,-7.4 -16.6,-16.6 0,-0.9 -0.8,-1.7 -1.7,-1.7 H 97.6 c -0.9,0 -1.7,0.8 -1.7,1.7 0,17.8 14.4,32.1 32.1,32.1 z"
   id="path6"
   inkscape:connector-curvature="0"
   style="fill:#009fe3" />

			<path
   class="st1"
   d="m 128,187.4 c 34.3,0 62.3,-28 62.3,-62.3 0,-0.9 -0.8,-1.7 -1.7,-1.7 h -12.1 c -0.9,0 -1.7,0.8 -1.7,1.7 0,25.9 -21,46.9 -46.9,46.9 C 102,172 81,151 81,125.1 c 0,-0.9 -0.8,-1.7 -1.7,-1.7 H 67.4 c -0.9,0 -1.7,0.8 -1.7,1.7 -0.2,34.3 27.8,62.3 62.3,62.3 z"
   id="path8"
   inkscape:connector-curvature="0"
   style="fill:#009fe3" />

			<path
   class="st1"
   d="m 219,123.4 h -12.1 c -0.9,0 -1.7,0.8 -1.7,1.7 0,42.6 -34.8,77.3 -77.3,77.3 -42.6,0 -77.3,-34.6 -77.3,-77.3 0,-0.9 -0.8,-1.7 -1.7,-1.7 H 37 c -0.9,0 -1.7,0.8 -1.7,1.7 0,51.1 41.6,92.7 92.7,92.7 51.1,0 92.7,-41.6 92.7,-92.7 0,-0.9 -0.8,-1.7 -1.7,-1.7 z"
   id="path10"
   inkscape:connector-curvature="0"
   style="fill:#009fe3" />

		</g>

		<path
   class="st2"
   d="m 86.3,83.3 c 6.2,3.2 12.9,3.8 18.9,7.3 3.9,2.3 6.4,4.8 8.8,8.6 3.8,5.7 3.6,12.9 3.6,12.9 l 0.5,7.9 c 0,0 3,7.9 9.7,7.9 7.1,0 9.7,-7.9 9.7,-7.9 l 0.5,-7.9 c 0,0 -0.2,-7.1 3.6,-12.9 2.4,-3.8 4.8,-6.5 8.8,-8.6 6,-3.5 12.7,-4.1 18.9,-7.3 6.2,-3.2 12.2,-7.3 16.3,-13 4.1,-5.7 6,-13.3 3.8,-20 -11.8,-0.6 -25.4,0.8 -35.8,6.4 -14.5,7.7 -23.3,5 -25.9,16.5 h -0.2 c -2.6,-11.6 -11.3,-8.8 -25.9,-16.5 -10.4,-5.6 -24,-7 -35.8,-6.4 -2.3,6.7 -0.3,14.2 3.8,20 4.4,5.8 10.5,9.9 16.7,13 z"
   id="path14"
   inkscape:connector-curvature="0"
   style="fill:#3c3c3b" />

	</g>

</g>
      <g
         transform="translate(-0.75595238,-0.75595238)"
         id="g5221">
        <path
           style="fill:#3c3c3b;fill-opacity:1;stroke-width:0.74382526"
           inkscape:connector-curvature="0"
           d="m 32.845914,132.89252 c 0,-6.69443 2.603389,-9.29781 10.413554,-9.29781 1.636415,0 3.719126,0.14876 4.834864,0.37191 0.59506,0.14876 1.115738,0.59506 1.115738,1.11574 v 2.00832 c 0,0.59506 -0.446295,1.11574 -1.115738,1.11574 h -0.669443 c -0.818208,0 -1.48765,-0.29753 -2.529006,-0.29753 -4.834864,0 -5.801837,0.96698 -5.801837,4.98363 v 0.29753 h 6.620045 c 0.59506,0 1.115738,0.4463 1.115738,1.11574 v 2.15709 c 0,0.66945 -0.446295,1.11574 -1.115738,1.11574 h -6.620045 v 11.30614 c 0,0.59506 -0.446295,1.11574 -1.115737,1.11574 h -4.016657 c -0.59506,0 -1.115738,-0.52068 -1.115738,-1.11574 z"
           id="path5166" />
        <path
           style="fill:#3c3c3b;fill-opacity:1;stroke-width:0.74382526"
           inkscape:connector-curvature="0"
           d="m 57.020235,141.59528 c 0,3.04968 1.413268,4.31418 3.495978,4.31418 1.785181,0 3.495979,-1.2645 4.834864,-2.60339 v -12.12435 c 0,-0.59506 0.520678,-1.11573 1.115738,-1.11573 h 4.091039 c 0.59506,0 1.115738,0.52067 1.115738,1.11573 v 17.70304 c 0,0.59506 -0.446295,1.11574 -1.115738,1.11574 h -4.091039 c -0.59506,0 -1.115738,-0.52068 -1.115738,-1.11574 v -1.19012 c -1.710798,1.48765 -3.570361,2.67777 -6.322514,2.67777 -4.834864,0 -8.25646,-2.529 -8.25646,-8.70275 v -10.41355 c 0,-0.59506 0.446295,-1.11574 1.115738,-1.11574 h 4.091038 c 0.595061,0 1.115738,0.52068 1.115738,1.11574 v 10.33917 z"
           id="path5168" />
        <path
           style="fill:#3c3c3b;fill-opacity:1;stroke-width:0.74382526"
           inkscape:connector-curvature="0"
           d="m 90.715518,138.47121 c 0,-3.04968 -1.413268,-4.31419 -3.495979,-4.31419 -1.78518,0 -3.570361,1.26451 -4.909246,2.60339 v 12.19874 c 0,0.59506 -0.446295,1.11573 -1.115738,1.11573 h -4.091039 c -0.669442,0 -1.115738,-0.52067 -1.115738,-1.11573 v -17.77743 c 0,-0.59506 0.446296,-1.11573 1.115738,-1.11573 h 4.165422 c 0.59506,0 1.115737,0.52067 1.115737,1.11573 v 1.19012 c 1.710798,-1.48765 3.570362,-2.67777 6.396897,-2.67777 4.834865,0 8.256461,2.52901 8.256461,8.70276 v 10.41355 c 0,0.59506 -0.446295,1.11574 -1.115738,1.11574 h -4.091039 c -0.59506,0 -1.115738,-0.52068 -1.115738,-1.11574 z"
           id="path5170" />
        <path
           style="fill:#3c3c3b;fill-opacity:1;stroke-width:0.74382526"
           inkscape:connector-curvature="0"
           d="m 107.67473,137.95053 c 2.1571,0 3.57036,-0.89259 4.31419,-2.45462 l 1.78518,-3.71913 c 0.4463,-1.04135 1.56203,-1.71079 2.60339,-1.71079 h 3.42159 c 0.96698,0 1.11574,0.74382 0.59507,1.71079 l -2.38025,4.98363 c -0.74382,1.63642 -2.23147,2.90092 -3.86789,3.27283 1.48765,0.4463 2.75216,1.48765 3.86789,3.27283 l 3.12407,4.98363 c 0.59506,0.96698 0.29753,1.7108 -0.59506,1.7108 h -3.4216 c -1.19012,0 -2.15709,-0.74382 -2.75215,-1.7108 l -2.30586,-3.71912 c -0.96697,-1.63642 -2.67777,-2.38024 -4.31418,-2.38024 v 6.76881 c 0,0.59506 -0.4463,1.11573 -1.11574,1.11573 h -4.09104 c -0.59506,0 -1.11574,-0.52067 -1.11574,-1.11573 v -23.80241 c 0,-0.59506 0.4463,-1.11574 1.11574,-1.11574 h 4.09104 c 0.59506,0 1.11574,0.52068 1.11574,1.11574 v 12.79379 z"
           id="path5172" />
        <path
           style="fill:#3c3c3b;fill-opacity:1;stroke-width:0.74382526"
           inkscape:connector-curvature="0"
           d="m 140.1799,130.06599 c 1.04135,0 1.78518,0.59506 2.08271,1.56203 l 2.9753,9.81849 2.9753,-9.81849 c 0.29753,-1.04136 1.33888,-1.56203 2.45462,-1.56203 h 3.34722 c 0.89259,0 1.04135,0.66944 0.74382,1.56203 l -5.50431,16.73607 c -0.29753,0.96697 -1.33888,1.56203 -2.30585,1.56203 h -2.60339 c -0.89259,0 -2.00833,-0.59506 -2.30586,-1.56203 l -3.49598,-10.78547 -3.49598,10.85985 c -0.29753,0.96697 -1.41327,1.56203 -2.30586,1.56203 h -2.60338 c -0.96698,0 -1.93395,-0.59506 -2.30586,-1.56203 l -5.50431,-16.73607 c -0.29753,-0.89259 -0.0744,-1.56203 0.74383,-1.56203 h 3.34721 c 1.11574,0 2.08271,0.59506 2.45462,1.56203 l 2.9753,9.81849 2.9753,-9.81849 c 0.29753,-0.96697 1.04136,-1.56203 2.08272,-1.56203 h 3.27283 z"
           id="path5174" />
        <path
           style="fill:#3c3c3b;fill-opacity:1;stroke-width:0.74382526"
           inkscape:connector-curvature="0"
           d="m 172.09,138.47121 c 0,-3.04968 -1.41327,-4.31419 -3.4216,-4.31419 -1.78518,0 -3.57036,1.26451 -4.90924,2.60339 v 12.19874 c 0,0.59506 -0.4463,1.11573 -1.11574,1.11573 h -4.09104 c -0.59506,0 -1.11574,-0.52067 -1.11574,-1.11573 v -23.80241 c 0,-0.59506 0.52068,-1.11574 1.11574,-1.11574 h 4.09104 c 0.59506,0 1.11574,0.52068 1.11574,1.11574 v 7.2151 c 1.71079,-1.48765 3.57036,-2.67777 6.39689,-2.67777 4.83487,0 8.25646,2.52901 8.25646,8.70276 v 10.41355 c 0,0.59506 -0.52067,1.11574 -1.11573,1.11574 h -4.09104 c -0.59506,0 -1.11574,-0.52068 -1.11574,-1.11574 z"
           id="path5176" />
        <path
           style="fill:#3c3c3b;fill-opacity:1;stroke-width:0.74382526"
           inkscape:connector-curvature="0"
           d="m 189.04921,135.04961 c -0.44629,0.59506 -1.19012,0.96698 -2.08271,0.96698 h -2.67777 c -0.59506,0 -1.11573,-0.4463 -1.11573,-1.11574 0,-3.86789 3.86789,-5.20678 9.89287,-5.20678 5.35554,0 9.59535,2.23148 9.59535,7.88455 v 11.23176 c 0,0.59506 -0.52068,1.11574 -1.11574,1.11574 h -3.49598 c -0.59506,0 -1.11574,-0.52068 -1.11574,-1.11574 v -0.59506 c -1.7108,1.19012 -3.71912,2.08271 -6.62004,2.08271 -4.83487,0 -8.55399,-2.15709 -8.55399,-6.39689 0,-4.23981 3.71912,-6.32252 8.55399,-6.32252 h 6.02498 c 0,-2.90092 -1.19012,-3.79351 -3.71912,-3.79351 -1.56204,0.0744 -2.9753,0.52068 -3.57037,1.2645 z m 7.28949,9.52097 v -2.82654 h -5.57869 c -1.78518,0 -2.75215,0.96697 -2.75215,2.23148 0,1.2645 0.96697,2.23147 2.9753,2.23147 2.15709,0 4.01666,-0.8182 5.35554,-1.63641 z"
           id="path5178" />
        <path
           style="fill:#3c3c3b;fill-opacity:1;stroke-width:0.74382526"
           inkscape:connector-curvature="0"
           d="m 208.16552,150.0005 c -0.59506,0 -1.11573,-0.52068 -1.11573,-1.11574 v -23.8024 c 0,-0.59506 0.52067,-1.11574 1.11573,-1.11574 h 4.09104 c 0.59506,0 1.11574,0.52068 1.11574,1.11574 v 23.8024 c 0,0.59506 -0.44629,1.11574 -1.11574,1.11574 z"
           id="path5180" />
        <path
           style="fill:#3c3c3b;fill-opacity:1;stroke-width:0.74382526"
           inkscape:connector-curvature="0"
           d="m 223.04203,141.96719 c 0.22315,2.9753 1.56203,4.2398 4.61171,4.2398 1.56204,0 2.97531,-0.44629 3.57037,-1.19012 0.52067,-0.59506 1.19012,-0.96697 2.08271,-0.96697 h 2.67777 c 0.59506,0 1.11574,0.52068 1.11574,1.11574 0,3.86789 -3.94228,5.20677 -9.89288,5.20677 -6.62004,0 -10.6367,-3.57036 -10.6367,-10.26478 0,-6.69443 4.01666,-10.33917 10.6367,-10.33917 6.62004,0 10.56232,3.57036 10.56232,10.11602 v 1.04135 c 0,0.59506 -0.4463,1.11574 -1.11574,1.11574 h -13.612 z m 0,-3.86789 h 8.47961 c -0.14877,-2.75216 -1.48765,-4.23981 -4.23981,-4.23981 -2.67777,0 -4.09104,1.48765 -4.2398,4.23981 z"
           id="path5182" />
      </g>
    </g>
  </g>
  <style
     id="style2"
     type="text/css">
	.st0{fill:#FFFFFF;}
	.st1{fill:#009FE3;}
	.st2{fill:#3C3C3B;}
</style>
</svg>
